<?xml version="1.0" encoding="UTF-8" standalone="no"?>
<!-- Created with Inkscape (http://www.inkscape.org/) -->

<svg
   width="630"
   height="500"
   viewBox="0 0 166.6875 132.29167"
   version="1.1"
   id="svg5"
   inkscape:version="1.2 (dc2aedaf03, 2022-05-15)"
   sodipodi:docname="cover.svg"
   inkscape:export-filename="cover.png"
   inkscape:export-xdpi="96"
   inkscape:export-ydpi="96"
   xmlns:inkscape="http://www.inkscape.org/namespaces/inkscape"
   xmlns:sodipodi="http://sodipodi.sourceforge.net/DTD/sodipodi-0.dtd"
   xmlns:xlink="http://www.w3.org/1999/xlink"
   xmlns="http://www.w3.org/2000/svg"
   xmlns:svg="http://www.w3.org/2000/svg">
  <sodipodi:namedview
     id="namedview7"
     pagecolor="#505050"
     bordercolor="#ffffff"
     borderopacity="1"
     inkscape:showpageshadow="0"
     inkscape:pageopacity="0"
     inkscape:pagecheckerboard="false"
     inkscape:deskcolor="#505050"
     inkscape:document-units="mm"
     showgrid="false"
     inkscape:zoom="1.131351"
     inkscape:cx="360.63078"
     inkscape:cy="260.30825"
     inkscape:window-width="1920"
     inkscape:window-height="1006"
     inkscape:window-x="1080"
     inkscape:window-y="554"
     inkscape:window-maximized="1"
     inkscape:current-layer="layer1" />
  <defs
     id="defs2">
    <rect
       x="185.79552"
       y="194.10419"
       width="371.94473"
       height="135.76686"
       id="rect2651" />
    <filter
       style="color-interpolation-filters:sRGB;"
       inkscape:label="Blur"
       id="filter2891"
       x="-0.26393464"
       y="-0.22175982"
       width="1.5278693"
       height="1.4435196">
      <feGaussianBlur
         stdDeviation="2 2"
         result="blur"
         id="feGaussianBlur2889" />
    </filter>
    <rect
       x="185.79552"
       y="194.10419"
       width="371.94473"
       height="135.76686"
       id="rect2897" />
    <rect
       x="185.79552"
       y="194.10419"
       width="371.94473"
       height="135.76686"
       id="rect2903" />
    <filter
       style="color-interpolation-filters:sRGB;"
       inkscape:label="Blur"
       id="filter3973"
       x="-0.024687202"
       y="-0.14315258"
       width="1.0493744"
       height="1.2863052">
      <feGaussianBlur
         stdDeviation="1 1"
         result="blur"
         id="feGaussianBlur3971" />
    </filter>
  </defs>
  <g
     inkscape:label="Layer 1"
     inkscape:groupmode="layer"
     id="layer1">
    <g
       id="g8829"
       transform="translate(-180.0865,-21.555517)">
      <g
         transform="matrix(0.43631132,0,0,0.43631132,-237.98046,-178.30963)"
         id="g3604"
         inkscape:tile-cx="193.96775"
         inkscape:tile-cy="59.916349"
         inkscape:tile-w="27.785"
         inkscape:tile-h="27.785"
         inkscape:tile-x0="180.07525"
         inkscape:tile-y0="46.023849">
        <g
           id="use3602">
          <path
             fill="#bd8042"
             stroke="none"
             d="m 1020.5,563.5 q -0.8,0 -1.8,0.7 -0.6,0.45 -2.05,1.85 -1.35,1.45 -1.8,2 -0.75,1.05 -0.7,1.8 -0.05,0.8 0.7,1.8 0.45,0.6 1.8,2.05 1.45,1.4 2.05,1.8 1,0.75 1.8,0.7 0.65,0.05 1.5,-0.5 V 564 q -0.85,-0.5 -1.5,-0.5 m 1.45,-45.9 q -0.25,0.2 -0.4,0.45 -1.15,1.35 -1.2,2.45 -0.15,1.15 0.85,2.65 0.25,0.45 0.75,1.1 l 0.05,0.05 v -6.75 q -0.05,0 -0.05,0.05 m -58.45,59.25 q -0.55,0.35 -1.5,1.15 h 7.4 q -0.45,-0.5 -0.75,-0.75 -1.4,-1.2 -2.5,-1.2 -1.15,-0.15 -2.65,0.8 m -3.15,-10.8 q -1.5,-1.4 -2.05,-1.85 -0.15,-0.1 -0.3,-0.2 v 11.75 q 0.15,-0.1 0.3,-0.25 0.55,-0.4 2.05,-1.8 1.4,-1.5 1.8,-2.05 0.75,-1 0.7,-1.8 0.05,-0.75 -0.7,-1.8 -0.4,-0.55 -1.8,-2 m 11.05,-50 q -1.2,-1.3 -2,-2.05 H 962 q -0.7,0.5 -1.65,1.25 -1.6,1.45 -2.35,2.3 v 6.75 q 0.6,0.8 1.55,2 1.95,2.15 2.75,2.85 1.35,1.15 2.5,1.2 1.1,0.1 2.65,-0.85 0.95,-0.6 3.1,-2.4 2.15,-1.9 2.85,-2.75 1.15,-1.35 1.2,-2.5 0.15,-1.1 -0.8,-2.65 -0.55,-0.9 -2.4,-3.15 m 36.3,35 q -1.1,-0.05 -2.55,1 -0.9,0.7 -2.95,2.65 -1.95,2.05 -2.6,2.95 -1.1,1.45 -1.05,2.55 -0.05,1.15 1.05,2.6 0.65,0.9 2.6,2.95 2.05,1.95 2.95,2.65 1.45,1.05 2.55,1 1.15,0.05 2.6,-1 0.85,-0.65 2.95,-2.65 2,-2.05 2.65,-2.95 1.05,-1.45 1,-2.6 0.05,-1.1 -1,-2.55 -0.65,-0.9 -2.65,-2.95 -2.1,-2 -2.95,-2.65 -1.45,-1.05 -2.6,-1 m -3,-25.55 q -0.4,-0.55 -1.8,-2.05 -1.45,-1.4 -2.05,-1.8 -1,-0.75 -1.8,-0.75 -0.75,0 -1.75,0.75 -0.6,0.4 -2.05,1.8 -1.4,1.45 -1.85,2.05 -0.7,1 -0.7,1.75 0,0.8 0.7,1.8 0.45,0.6 1.85,2.05 1.45,1.4 2.05,1.85 1,0.7 1.75,0.7 0.8,0 1.8,-0.7 0.6,-0.45 2.05,-1.85 1.4,-1.45 1.8,-2.05 0.75,-1 0.7,-1.8 0.05,-0.75 -0.7,-1.75 z"
             id="path8656" />
          <path
             fill="#b1783e"
             stroke="none"
             d="m 1005.1,576.45 q -0.85,0.85 -1.45,1.55 h 13.95 q -0.65,-0.7 -1.45,-1.55 -2.1,-2 -2.95,-2.6 -1.45,-1.05 -2.6,-1.05 -1.1,0 -2.55,1.05 -0.9,0.65 -2.95,2.6 m -14.85,-9.9 q -2.05,-1.5 -3.65,-1.45 -1.55,-0.05 -3.6,1.45 -1.2,0.9 -4.15,3.7 -2.8,2.95 -3.7,4.2 -1.5,2 -1.45,3.55 h 25.85 q 0.05,-1.55 -1.45,-3.55 -0.9,-1.25 -3.7,-4.2 -2.95,-2.8 -4.15,-3.7 m 7.85,-48.9 q 1.5,-2.05 1.45,-3.65 H 973.7 q -0.05,1.6 1.45,3.65 0.9,1.25 3.7,4.15 2.95,2.8 4.15,3.7 2.05,1.5 3.6,1.45 1.6,0.05 3.65,-1.45 1.2,-0.9 4.15,-3.7 2.8,-2.95 3.7,-4.15 m 23.85,9.9 q -2.05,-1.55 -3.7,-1.5 -1.65,-0.05 -3.75,1.5 -1.3,0.95 -4.35,3.85 -2.9,3.05 -3.85,4.35 -1.55,2.15 -1.5,3.8 -0.05,1.65 1.5,3.75 0.95,1.3 3.85,4.35 3.05,2.9 4.35,3.85 2.1,1.55 3.75,1.5 1.65,0.05 3.75,-1.45 v -24 h -0.05 M 1019.8,518 q 0,-1.15 -1.05,-2.6 -0.35,-0.5 -1.2,-1.4 h -13.85 q -0.85,0.9 -1.25,1.4 -1.05,1.45 -1,2.6 -0.05,1.1 1,2.55 0.65,0.9 2.65,2.95 2.05,2 2.95,2.65 1.45,1.05 2.55,1 1.15,0.05 2.6,-1 0.85,-0.65 2.95,-2.65 1.95,-2.05 2.6,-2.95 1.05,-1.45 1.05,-2.55 m -61.75,9.55 H 958 v 24 l 0.05,-0.05 q 1.2,-0.9 4.3,-3.85 2.9,-3.05 3.85,-4.35 1.55,-2.1 1.5,-3.75 0.05,-1.65 -1.5,-3.8 -0.95,-1.3 -3.85,-4.35 -3.1,-2.95 -4.3,-3.85 m 28.95,5.9 q -1.35,0.85 -4.55,3.6 -3.1,2.85 -4.1,4.1 -1.7,2.05 -1.75,3.7 -0.15,1.6 1.3,3.85 0.85,1.3 3.6,4.55 2.85,3.1 4.1,4.1 2.05,1.65 3.65,1.7 1.65,0.15 3.9,-1.25 1.3,-0.9 4.55,-3.6 3.05,-2.85 4.1,-4.1 1.7,-2.05 1.75,-3.7 0.15,-1.65 -1.3,-3.85 -0.85,-1.3 -3.6,-4.55 -2.85,-3.1 -4.1,-4.1 -2.05,-1.7 -3.7,-1.75 -1.65,-0.15 -3.85,1.3 m -21.55,19.3 q -1.75,2.3 -2.25,3.25 -0.9,1.55 -0.75,2.65 0.05,1.1 1.3,2.45 0.7,0.8 2.9,2.65 2.3,1.75 3.25,2.25 1.55,0.9 2.65,0.75 1.15,-0.1 2.45,-1.3 0.8,-0.75 2.65,-2.95 1.75,-2.25 2.3,-3.2 0.9,-1.55 0.7,-2.7 -0.05,-1.1 -1.3,-2.45 -0.75,-0.8 -2.9,-2.6 -2.3,-1.75 -3.25,-2.3 -1.55,-0.9 -2.65,-0.75 -1.15,0.1 -2.45,1.3 -0.8,0.75 -2.65,2.95 m 5.75,-23.1 q -1.55,1.25 -2.1,1.8 -0.85,0.9 -0.95,1.65 -0.15,0.75 0.45,1.85 0.35,0.65 1.5,2.3 1.2,1.6 1.75,2.1 0.9,0.9 1.65,0.95 0.8,0.15 1.85,-0.45 0.7,-0.35 2.3,-1.5 1.6,-1.25 2.1,-1.75 0.9,-0.9 0.95,-1.65 0.15,-0.8 -0.4,-1.85 -0.35,-0.65 -1.5,-2.3 -1.25,-1.6 -1.8,-2.1 -0.9,-0.9 -1.65,-1 -0.75,-0.1 -1.85,0.45 -0.65,0.35 -2.3,1.5 z"
             id="path8658" />
          <path
             fill="#aa733c"
             stroke="none"
             d="m 962,514 h -4 v 3.55 q 0.75,-0.85 2.35,-2.3 0.95,-0.75 1.65,-1.25 m 7.4,0 q 0.8,0.75 2,2.05 1.85,2.25 2.4,3.15 0.95,1.55 0.8,2.65 -0.05,1.15 -1.2,2.5 -0.7,0.85 -2.85,2.75 -2.15,1.8 -3.1,2.4 -1.55,0.95 -2.65,0.85 -1.15,-0.05 -2.5,-1.2 -0.8,-0.7 -2.75,-2.85 -0.95,-1.2 -1.55,-2 v 3.25 h 0.05 q 1.2,0.9 4.3,3.85 2.9,3.05 3.85,4.35 1.55,2.15 1.5,3.8 0.05,1.65 -1.5,3.75 -0.95,1.3 -3.85,4.35 -3.1,2.95 -4.3,3.85 L 958,551.55 V 564 q 0.15,0.1 0.3,0.2 0.55,0.45 2.05,1.85 1.4,1.45 1.8,2 0.75,1.05 0.7,1.8 0.05,0.8 -0.7,1.8 -0.4,0.55 -1.8,2.05 -1.5,1.4 -2.05,1.8 -0.15,0.15 -0.3,0.25 V 578 h 4 q 0.95,-0.8 1.5,-1.15 1.5,-0.95 2.65,-0.8 1.1,0 2.5,1.2 0.3,0.25 0.75,0.75 h 4.3 q -0.05,-1.55 1.45,-3.55 0.9,-1.25 3.7,-4.2 2.95,-2.8 4.15,-3.7 2.05,-1.5 3.6,-1.45 1.6,-0.05 3.65,1.45 1.2,0.9 4.15,3.7 2.8,2.95 3.7,4.2 1.5,2 1.45,3.55 h 4.1 q 0.6,-0.7 1.45,-1.55 2.05,-1.95 2.95,-2.6 1.45,-1.05 2.55,-1.05 1.15,0 2.6,1.05 0.85,0.6 2.95,2.6 0.8,0.85 1.45,1.55 h 4.4 v -2.3 q -0.85,0.55 -1.5,0.5 -0.8,0.05 -1.8,-0.7 -0.6,-0.4 -2.05,-1.8 -1.35,-1.45 -1.8,-2.05 -0.75,-1 -0.7,-1.8 -0.05,-0.75 0.7,-1.8 0.45,-0.55 1.8,-2 1.45,-1.4 2.05,-1.85 1,-0.7 1.8,-0.7 0.65,0 1.5,0.5 v -12.45 q -2.1,1.5 -3.75,1.45 -1.65,0.05 -3.75,-1.5 -1.3,-0.95 -4.35,-3.85 -2.9,-3.05 -3.85,-4.35 -1.55,-2.1 -1.5,-3.75 -0.05,-1.65 1.5,-3.8 0.95,-1.3 3.85,-4.35 3.05,-2.9 4.35,-3.85 2.1,-1.55 3.75,-1.5 1.65,-0.05 3.7,1.5 h 0.05 v -3.25 l -0.05,-0.05 q -0.5,-0.65 -0.75,-1.1 -1,-1.5 -0.85,-2.65 0.05,-1.1 1.2,-2.45 0.15,-0.25 0.4,-0.45 0,-0.05 0.05,-0.05 V 514 h -4.45 q 0.85,0.9 1.2,1.4 1.05,1.45 1.05,2.6 0,1.1 -1.05,2.55 -0.65,0.9 -2.6,2.95 -2.1,2 -2.95,2.65 -1.45,1.05 -2.6,1 -1.1,0.05 -2.55,-1 -0.9,-0.65 -2.95,-2.65 -2,-2.05 -2.65,-2.95 -1.05,-1.45 -1,-2.55 -0.05,-1.15 1,-2.6 0.4,-0.5 1.25,-1.4 h -4.15 q 0.05,1.6 -1.45,3.65 -0.9,1.2 -3.7,4.15 -2.95,2.8 -4.15,3.7 -2.05,1.5 -3.65,1.45 -1.55,0.05 -3.6,-1.45 -1.2,-0.9 -4.15,-3.7 -2.8,-2.9 -3.7,-4.15 -1.5,-2.05 -1.45,-3.65 h -4.3 m -0.3,17.45 q 0.55,-0.55 2.1,-1.8 1.65,-1.15 2.3,-1.5 1.1,-0.55 1.85,-0.45 0.75,0.1 1.65,1 0.55,0.5 1.8,2.1 1.15,1.65 1.5,2.3 0.55,1.05 0.4,1.85 -0.05,0.75 -0.95,1.65 -0.5,0.5 -2.1,1.75 -1.6,1.15 -2.3,1.5 -1.05,0.6 -1.85,0.45 -0.75,-0.05 -1.65,-0.95 -0.55,-0.5 -1.75,-2.1 -1.15,-1.65 -1.5,-2.3 -0.6,-1.1 -0.45,-1.85 0.1,-0.75 0.95,-1.65 M 963.2,556 q 0.5,-0.95 2.25,-3.25 1.85,-2.2 2.65,-2.95 1.3,-1.2 2.45,-1.3 1.1,-0.15 2.65,0.75 0.95,0.55 3.25,2.3 2.15,1.8 2.9,2.6 1.25,1.35 1.3,2.45 0.2,1.15 -0.7,2.7 -0.55,0.95 -2.3,3.2 -1.85,2.2 -2.65,2.95 -1.3,1.2 -2.45,1.3 -1.1,0.15 -2.65,-0.75 -0.95,-0.5 -3.25,-2.25 -2.2,-1.85 -2.9,-2.65 -1.25,-1.35 -1.3,-2.45 -0.15,-1.1 0.75,-2.65 m 19.25,-18.95 q 3.2,-2.75 4.55,-3.6 2.2,-1.45 3.85,-1.3 1.65,0.05 3.7,1.75 1.25,1 4.1,4.1 2.75,3.25 3.6,4.55 1.45,2.2 1.3,3.85 -0.05,1.65 -1.75,3.7 -1.05,1.25 -4.1,4.1 -3.25,2.7 -4.55,3.6 -2.25,1.4 -3.9,1.25 -1.6,-0.05 -3.65,-1.7 -1.25,-1 -4.1,-4.1 -2.75,-3.25 -3.6,-4.55 -1.45,-2.25 -1.3,-3.85 0.05,-1.65 1.75,-3.7 1,-1.25 4.1,-4.1 m 20.45,-13.6 q 1.4,1.5 1.8,2.05 0.75,1 0.7,1.75 0.05,0.8 -0.7,1.8 -0.4,0.6 -1.8,2.05 -1.45,1.4 -2.05,1.85 -1,0.7 -1.8,0.7 -0.75,0 -1.75,-0.7 -0.6,-0.45 -2.05,-1.85 -1.4,-1.45 -1.85,-2.05 -0.7,-1 -0.7,-1.8 0,-0.75 0.7,-1.75 0.45,-0.6 1.85,-2.05 1.45,-1.4 2.05,-1.8 1,-0.75 1.75,-0.75 0.8,0 1.8,0.75 0.6,0.4 2.05,1.8 m 2.25,28.6 q 1.45,-1.05 2.55,-1 1.15,-0.05 2.6,1 0.85,0.65 2.95,2.65 2,2.05 2.65,2.95 1.05,1.45 1,2.55 0.05,1.15 -1,2.6 -0.65,0.9 -2.65,2.95 -2.1,2 -2.95,2.65 -1.45,1.05 -2.6,1 -1.1,0.05 -2.55,-1 -0.9,-0.7 -2.95,-2.65 -1.95,-2.05 -2.6,-2.95 -1.1,-1.45 -1.05,-2.6 -0.05,-1.1 1.05,-2.55 0.65,-0.9 2.6,-2.95 2.05,-1.95 2.95,-2.65 z"
             id="path8660" />
        </g>
      </g>
      <use
         x="0"
         y="0"
         inkscape:tiled-clone-of="#g3604"
         xlink:href="#g3604"
         id="use8770"
         transform="matrix(1.005,0,0,1.005,-0.96983877,-0.29958174)" />
      <use
         x="0"
         y="0"
         inkscape:tiled-clone-of="#g3604"
         xlink:href="#g3604"
         transform="matrix(1.005,0,0,1.005,-0.96983877,27.485418)"
         id="use8772" />
      <use
         x="0"
         y="0"
         inkscape:tiled-clone-of="#g3604"
         xlink:href="#g3604"
         transform="matrix(1.005,0,0,1.005,-0.96983877,55.270417)"
         id="use8774" />
      <use
         x="0"
         y="0"
         inkscape:tiled-clone-of="#g3604"
         xlink:href="#g3604"
         transform="matrix(1.005,0,0,1.005,26.815161,-0.29958174)"
         id="use8776" />
      <use
         x="0"
         y="0"
         inkscape:tiled-clone-of="#g3604"
         xlink:href="#g3604"
         transform="matrix(1.005,0,0,1.005,26.815161,27.485418)"
         id="use8778" />
      <use
         x="0"
         y="0"
         inkscape:tiled-clone-of="#g3604"
         xlink:href="#g3604"
         transform="matrix(1.005,0,0,1.005,26.815161,55.270417)"
         id="use8780" />
      <use
         x="0"
         y="0"
         inkscape:tiled-clone-of="#g3604"
         xlink:href="#g3604"
         transform="matrix(1.005,0,0,1.005,54.60016,-0.29958174)"
         id="use8782" />
      <use
         x="0"
         y="0"
         inkscape:tiled-clone-of="#g3604"
         xlink:href="#g3604"
         transform="matrix(1.005,0,0,1.005,54.60016,27.485418)"
         id="use8784" />
      <use
         x="0"
         y="0"
         inkscape:tiled-clone-of="#g3604"
         xlink:href="#g3604"
         transform="matrix(1.005,0,0,1.005,54.60016,55.270417)"
         id="use8786" />
      <use
         x="0"
         y="0"
         inkscape:tiled-clone-of="#g3604"
         xlink:href="#g3604"
         transform="matrix(1.005,0,0,1.005,82.38516,-0.29958174)"
         id="use8788" />
      <use
         x="0"
         y="0"
         inkscape:tiled-clone-of="#g3604"
         xlink:href="#g3604"
         transform="matrix(1.005,0,0,1.005,82.38516,27.485418)"
         id="use8790" />
      <use
         x="0"
         y="0"
         inkscape:tiled-clone-of="#g3604"
         xlink:href="#g3604"
         transform="matrix(1.005,0,0,1.005,82.38516,55.270417)"
         id="use8792" />
      <use
         x="0"
         y="0"
         inkscape:tiled-clone-of="#g3604"
         xlink:href="#g3604"
         transform="matrix(1.005,0,0,1.005,110.17016,-0.29958174)"
         id="use8794" />
      <use
         x="0"
         y="0"
         inkscape:tiled-clone-of="#g3604"
         xlink:href="#g3604"
         transform="matrix(1.005,0,0,1.005,110.17016,27.485418)"
         id="use8796" />
      <use
         x="0"
         y="0"
         inkscape:tiled-clone-of="#g3604"
         xlink:href="#g3604"
         transform="matrix(1.005,0,0,1.005,110.17016,55.270417)"
         id="use8798" />
      <use
         x="0"
         y="0"
         inkscape:tiled-clone-of="#g3604"
         xlink:href="#g3604"
         transform="matrix(1.005,0,0,1.005,137.95516,-0.29958174)"
         id="use8800" />
      <use
         x="0"
         y="0"
         inkscape:tiled-clone-of="#g3604"
         xlink:href="#g3604"
         transform="matrix(1.005,0,0,1.005,137.95516,27.485418)"
         id="use8802" />
      <use
         x="0"
         y="0"
         inkscape:tiled-clone-of="#g3604"
         xlink:href="#g3604"
         transform="matrix(1.005,0,0,1.005,137.95516,55.270417)"
         id="use8804" />
    </g>
    <g
       transform="matrix(0.4341355,0,0,0.4341355,-223.15591,-240.35383)"
       id="g3620"
       inkscape:tile-cx="11.740023"
       inkscape:tile-cy="120.20656"
       inkscape:tile-w="27.784672"
       inkscape:tile-h="27.784672"
       inkscape:tile-x0="-2.152313"
       inkscape:tile-y0="106.31423">
      <g
         id="use3618">
        <path
           fill="#ff5342"
           stroke="none"
           d="m 578,547 h -2 v 14 h 2 v -14 m 0,-16 h -2 v 14 h 2 v -14 m -15,45 v 2 h 7.55 q 7.2,-0.25 7.45,-7.45 V 563 h -2 v 7.3 q -0.15,5.7 -5.95,5.7 H 563 m -32,0 v 2 h 30 v -2 h -30 m -15,-13 h -2 v 7.55 q 0.25,7.2 7.45,7.45 H 529 v -2 h -7.05 q -5.8,0 -5.95,-5.7 V 563 m 0,-16 h -2 v 14 h 2 v -14 m 0,-16 h -2 v 14 h 2 v -14 m 29,-15 v -2 h -23.55 q -7.2,0.25 -7.45,7.45 V 529 h 2 v -7.05 Q 516,516 521.95,516 H 545 m 2,-2 v 2 h 23.05 q 5.95,0 5.95,5.95 V 529 h 2 v -7.55 q -0.25,-7.2 -7.45,-7.45 z"
           id="path6565" />
        <path
           fill="#cd4334"
           stroke="none"
           d="m 576,561 v 2 h 2 v -2 h -2 m 2,-14 v -2 h -2 v 2 h 2 m 0,-18 h -2 v 2 h 2 v -2 m -15,2 v 14 h 13 v -14 h -13 m -34,14 v -14 h -13 v 14 h 13 m 34,18 v 13 h 7.05 q 5.8,0 5.95,-5.7 V 563 h -13 m -2,0 h -30 v 13 h 30 v -13 m 0,13 v 2 h 2 v -2 h -2 m -32,0 v 2 h 2 v -2 h -2 m 18,-29 v 14 h 29 v -14 h -29 m -31,23.3 q 0.15,5.7 5.95,5.7 H 529 v -13 h -13 v 7.3 m 0,-23.3 v 14 h 29 v -14 h -29 m 0,14 h -2 v 2 h 2 v -2 m 0,-14 v -2 h -2 v 2 h 2 m 0,-18 h -2 v 2 h 2 v -2 m 31,-13 v 13 h 29 v -7.05 Q 576,516 570.05,516 H 547 m -2,13 V 516 H 521.95 Q 516,516 516,521.95 V 529 h 29 m 16,2 h -30 v 14 h 30 v -14 m -14,-15 v -2 h -2 v 2 z"
           id="path6567" />
        <path
           fill="#bb3c2f"
           stroke="none"
           d="m 531,563 h -2 v 13 h 2 v -13 m 16,-2 v -14 h -2 v 14 h 2 m 16,2 h -2 v 13 h 2 v -13 m -18,-47 v 13 h 2 v -13 h -2 m 18,15 h -2 v 14 h 2 v -14 m -32,0 h -2 v 14 h 2 z"
           id="path6569" />
        <path
           fill="#ad382b"
           stroke="none"
           d="m 516,561 v 2 h 13 2 30 2 13 v -2 h -29 -2 -29 m 0,-16 v 2 h 29 2 29 v -2 h -13 -2 -30 -2 -13 m 13,-14 h 2 30 2 13 v -2 h -29 -2 -29 v 2 z"
           id="path6571" />
      </g>
    </g>
    <use
       x="0"
       y="0"
       inkscape:tiled-clone-of="#g3620"
       xlink:href="#g3620"
       transform="translate(2e-8,27.784669)"
       id="use7672" />
    <use
       x="0"
       y="0"
       inkscape:tiled-clone-of="#g3620"
       xlink:href="#g3620"
       transform="translate(2e-8,111.13869)"
       id="use7678" />
    <use
       x="0"
       y="0"
       inkscape:tiled-clone-of="#g3620"
       xlink:href="#g3620"
       transform="translate(2e-8,138.92336)"
       id="use7680" />
    <use
       x="0"
       y="0"
       inkscape:tiled-clone-of="#g3620"
       xlink:href="#g3620"
       id="use7684"
       transform="translate(27.784672)" />
    <use
       x="0"
       y="0"
       inkscape:tiled-clone-of="#g3620"
       xlink:href="#g3620"
       transform="translate(27.784672,27.784669)"
       id="use7686" />
    <use
       x="0"
       y="0"
       inkscape:tiled-clone-of="#g3620"
       xlink:href="#g3620"
       transform="translate(27.784672,111.13869)"
       id="use7692" />
    <use
       x="0"
       y="0"
       inkscape:tiled-clone-of="#g3620"
       xlink:href="#g3620"
       transform="translate(27.784672,138.92336)"
       id="use7694" />
    <use
       x="0"
       y="0"
       inkscape:tiled-clone-of="#g3620"
       xlink:href="#g3620"
       id="use7698"
       transform="translate(55.569344)" />
    <use
       x="0"
       y="0"
       inkscape:tiled-clone-of="#g3620"
       xlink:href="#g3620"
       transform="translate(55.569344,27.784669)"
       id="use7700" />
    <use
       x="0"
       y="0"
       inkscape:tiled-clone-of="#g3620"
       xlink:href="#g3620"
       transform="translate(55.569344,111.13869)"
       id="use7706" />
    <use
       x="0"
       y="0"
       inkscape:tiled-clone-of="#g3620"
       xlink:href="#g3620"
       transform="translate(55.569344,138.92336)"
       id="use7708" />
    <use
       x="0"
       y="0"
       inkscape:tiled-clone-of="#g3620"
       xlink:href="#g3620"
       id="use7712"
       transform="translate(83.354016)" />
    <use
       x="0"
       y="0"
       inkscape:tiled-clone-of="#g3620"
       xlink:href="#g3620"
       transform="translate(83.354016,27.784669)"
       id="use7714" />
    <use
       x="0"
       y="0"
       inkscape:tiled-clone-of="#g3620"
       xlink:href="#g3620"
       transform="translate(83.354016,111.13869)"
       id="use7720" />
    <use
       x="0"
       y="0"
       inkscape:tiled-clone-of="#g3620"
       xlink:href="#g3620"
       transform="translate(83.354016,138.92336)"
       id="use7722" />
    <use
       x="0"
       y="0"
       inkscape:tiled-clone-of="#g3620"
       xlink:href="#g3620"
       id="use7726"
       transform="translate(111.13869)" />
    <use
       x="0"
       y="0"
       inkscape:tiled-clone-of="#g3620"
       xlink:href="#g3620"
       transform="translate(111.13869,27.784669)"
       id="use7728" />
    <use
       x="0"
       y="0"
       inkscape:tiled-clone-of="#g3620"
       xlink:href="#g3620"
       transform="translate(111.13869,111.13869)"
       id="use7734" />
    <use
       x="0"
       y="0"
       inkscape:tiled-clone-of="#g3620"
       xlink:href="#g3620"
       transform="translate(111.13869,138.92336)"
       id="use7736" />
    <use
       x="0"
       y="0"
       inkscape:tiled-clone-of="#g3620"
       xlink:href="#g3620"
       id="use7740"
       transform="translate(138.92336)" />
    <use
       x="0"
       y="0"
       inkscape:tiled-clone-of="#g3620"
       xlink:href="#g3620"
       transform="translate(138.92336,27.784669)"
       id="use7742" />
    <use
       x="0"
       y="0"
       inkscape:tiled-clone-of="#g3620"
       xlink:href="#g3620"
       transform="translate(138.92336,111.13869)"
       id="use7748" />
    <use
       x="0"
       y="0"
       inkscape:tiled-clone-of="#g3620"
       xlink:href="#g3620"
       transform="translate(138.92336,138.92336)"
       id="use7750" />
    <g
       id="g2875"
       transform="matrix(1.7332128,0,0,1.7332128,-102.05786,-10.868319)"
       style="filter:url(#filter2891)">
      <g
         transform="matrix(0.43300764,0,0,0.43300764,-2.5129537,-127.90538)"
         id="g2791">
        <g
           id="g2789">
          <path
             fill="#2ecc71"
             stroke="none"
             d="m 164.25,408.9 q 0.25,0.1 0.55,0.25 -4.05,-2.8 -4.35,-4.15 -1.6,0.3 -2.7,1.45 -1.75,1.7 -1.75,3.95 0,1.3 0.6,2.4 0.1,-0.8 0.6,-1.65 1.15,-1.95 3.5,-2.6 1.8,-0.5 3.55,0.35 z"
             id="path2785" />
          <path
             fill="#ffe0b1"
             stroke="none"
             d="m 164.95,415.55 q 1.15,-1.9 1.15,-3.85 -0.05,-1.75 -1.1,-2.4 -0.05,-0.05 -0.1,-0.05 -0.05,-0.05 -0.1,-0.1 -0.3,-0.15 -0.55,-0.25 -1.75,-0.85 -3.55,-0.35 -2.35,0.65 -3.5,2.6 -0.5,0.85 -0.6,1.65 -0.2,1.2 0.15,2.55 0.5,1.85 2.05,2.95 0.25,0.15 0.55,0.3 0.1,0.1 0.2,0.15 1.15,0.6 2.65,-0.3 1.65,-0.9 2.75,-2.9 z"
             id="path2787" />
        </g>
      </g>
      <g
         transform="matrix(0.43300764,0,0,0.43300764,-2.5129537,-127.90538)"
         id="g2797">
        <g
           id="g2795">
          <path
             fill="#333333"
             stroke="none"
             d="m 192,420.05 q 0,-2.1 -1.8,-3.55 -1.8,-1.5 -4.35,-1.5 -2.55,0 -4.35,1.5 -1.85,1.45 -1.85,3.55 0,0.15 0.05,0.2 0,0.15 0,0.25 0.1,0.9 1.55,1.6 0.1,0.05 0.25,0.1 0.5,0.2 1.05,0.4 1.5,0.4 3.3,0.4 1.85,0 3.25,-0.4 0.55,-0.2 1.1,-0.4 0.85,-0.45 1.35,-0.9 0.35,-0.4 0.45,-0.8 0,-0.1 0,-0.25 0,-0.05 0,-0.2 z"
             id="path2793" />
        </g>
      </g>
      <g
         transform="matrix(0.43300764,0,0,0.43300764,-2.5129537,-127.90538)"
         id="g2805">
        <g
           id="g2803">
          <path
             fill="#cd4335"
             stroke="none"
             d="m 170.75,414.35 q -0.25,0.25 -0.5,0.55 -1.45,1.9 -2,4.1 h 1.55 q 0.2,-0.15 0.45,-0.35 2.35,-1.4 5.75,-1.4 3.4,0 5.75,1.4 0.2,0.2 0.45,0.35 h 1.55 q -0.6,-2.2 -2,-4.1 -0.25,-0.3 -0.45,-0.55 -2.25,-2.4 -5.3,-2.4 -3.05,0 -5.25,2.4 z"
             id="path2799" />
          <path
             fill="#e74c3c"
             stroke="none"
             d="m 192.65,414.3 q 0.5,-7.55 -3.2,-10.85 H 162.6 q -3.65,3.55 -3.1,10.9 0.05,0.65 0.2,1.3 0.05,0.45 0.15,0.75 0.15,0.55 0.4,0.95 1,1.65 3.5,1.65 h 4.5 q 0.55,-2.2 2,-4.1 0.25,-0.3 0.5,-0.55 2.2,-2.4 5.25,-2.4 3.05,0 5.3,2.4 0.2,0.25 0.45,0.55 1.4,1.9 2,4.1 h 4.5 q 3.4,0 4.1,-2.95 0.05,-0.2 0.1,-0.4 0,-0.15 0.05,-0.35 0.05,-0.45 0.15,-0.95 z"
             id="path2801" />
        </g>
      </g>
      <g
         transform="matrix(0.43300764,0,0,0.43300764,-2.5129537,-127.90538)"
         id="g2811">
        <g
           id="g2809">
          <path
             fill="#d7bd93"
             stroke="none"
             d="m 195.7,394.1 q -1.3,-1.1 -3.15,-1.1 -1.85,0 -3.15,1.1 -1.25,1.2 -1.3,2.8 v 0.15 q 0.05,1.65 1.3,2.7 1.3,1.25 3.15,1.25 1.85,0 3.15,-1.25 1.3,-1.1 1.3,-2.7 0,-1.75 -1.3,-2.95 M 159.4,393 q -1.8,0 -3.1,1.1 -1.3,1.2 -1.3,2.8 v 0.15 q 0,1.65 1.3,2.7 1.3,1.25 3.1,1.25 1.85,0 3.15,-1.25 1.3,-1.1 1.3,-2.7 0,-1.75 -1.3,-2.95 -1.3,-1.1 -3.15,-1.1 z"
             id="path2807" />
        </g>
      </g>
      <g
         transform="matrix(0.43300764,0,0,0.43300764,-2.5129537,-127.90538)"
         id="g2821">
        <g
           id="g2819">
          <path
             fill="#2ecc71"
             stroke="none"
             d="m 170.25,408.45 q 2.35,1.55 5.75,1.55 3.4,0 5.75,-1.55 1.4,-0.95 2,-2.15 h -15.5 q 0.55,1.2 2,2.15 z"
             id="path2813" />
          <path
             fill="#694c39"
             stroke="none"
             d="m 188.35,383.1 q 0.65,8 4.65,12.2 0.05,-1.9 -0.05,-3.8 -0.2,-2.9 -0.55,-5.85 -0.25,-1.6 -1.1,-2.55 -1.05,-1.1 -3.05,-1.1 0.05,0.6 0.1,1.1 m -28.65,2.65 q -0.5,3.2 -0.65,6.4 -0.05,1.55 0,3.15 4.75,-3.85 4.75,-12.2 -0.05,-0.5 -0.05,-1.1 -1.9,0 -2.95,1.1 -0.9,0.95 -1.1,2.65 z"
             id="path2815" />
          <path
             fill="#ffe0b1"
             stroke="none"
             d="m 163.75,382 q 0,0.6 0.05,1.1 0,8.35 -4.75,12.2 0.05,3.65 0.65,7.3 0.05,0.45 0.15,0.8 0.15,0.65 0.4,1.1 1,1.8 3.5,1.8 h 4.5 15.5 4.5 q 3.4,0 4.1,-3.25 0.05,-0.25 0.1,-0.45 0,-0.2 0.05,-0.4 0.4,-3.1 0.5,-6.3 0,-0.3 0,-0.6 -4,-4.2 -4.65,-12.2 -0.05,-0.5 -0.1,-1.1 z"
             id="path2817" />
        </g>
      </g>
      <g
         transform="matrix(0.43300764,0,0,0.43300764,-2.5129537,-127.90538)"
         id="g2827">
        <g
           id="g2825">
          <path
             fill="#694c39"
             stroke="none"
             d="m 185,393 q -0.8,0 -1.4,0.9 -0.6,0.8 -0.6,2.1 0,1.3 0.6,2.1 0.6,0.9 1.4,0.9 0.9,0 1.4,-0.9 0.6,-0.8 0.6,-2.1 0,-1.3 -0.6,-2.1 -0.5,-0.9 -1.4,-0.9 z"
             id="path2823" />
        </g>
      </g>
      <g
         transform="matrix(0.43300764,0,0,0.43300764,-2.5129537,-127.90538)"
         id="g2833">
        <g
           id="g2831">
          <path
             fill="#694c39"
             stroke="none"
             d="m 167,393 q -0.8,0 -1.4,0.9 -0.6,0.8 -0.6,2.1 0,1.3 0.6,2.1 0.6,0.9 1.4,0.9 0.85,0 1.4,-0.9 0.6,-0.8 0.6,-2.1 0,-1.3 -0.6,-2.1 -0.55,-0.9 -1.4,-0.9 z"
             id="path2829" />
        </g>
      </g>
      <g
         transform="matrix(0.43300764,0,0,0.43300764,-2.5129537,-127.90538)"
         id="g2839">
        <g
           id="g2837">
          <path
             fill="#694c39"
             stroke="none"
             d="m 169,403.3 q 0,0.75 2.05,1.2 2.1,0.5 4.95,0.5 2.9,0 5,-0.5 2,-0.45 2,-1.2 0,-1.75 -2,-3 -2.1,-1.3 -5,-1.3 -2.85,0 -4.95,1.3 -1.85,1.25 -2.05,3 z"
             id="path2835" />
        </g>
      </g>
      <g
         transform="matrix(0.43300764,0,0,0.43300764,-2.5129537,-127.90538)"
         id="g2847">
        <g
           id="g2845">
          <path
             fill="#2ecc71"
             stroke="none"
             d="m 158,388.55 q -0.05,2.45 2.65,2.45 h 30.7 q 2.65,0 2.65,-2.45 v -2.35 q -17.75,-2.05 -36,0 z"
             id="path2841" />
          <path
             fill="#28b162"
             stroke="none"
             d="m 158,378.6 v 7.6 q 18.25,-2.05 36,0 v -7.6 h -0.05 q -0.55,-3.95 -5.3,-4.6 -12.65,-1.95 -25.25,-0.05 -4.85,0.7 -5.35,4.65 z"
             id="path2843" />
        </g>
      </g>
      <g
         transform="matrix(0.43300764,0,0,0.43300764,-2.5129537,-127.90538)"
         id="g2853">
        <g
           id="g2851">
          <path
             fill="#d7bd93"
             stroke="none"
             d="m 173,399.9 q 0,0.45 0.9,0.8 0.9,0.3 2.15,0.3 1.2,0 2.1,-0.3 0.85,-0.35 0.85,-0.8 0,-1.15 -0.85,-2 -0.9,-0.9 -2.1,-0.9 -1.25,0 -2.15,0.9 -0.8,0.85 -0.9,2 z"
             id="path2849" />
        </g>
      </g>
      <g
         transform="matrix(0.43300764,0,0,0.43300764,-2.5129537,-127.90538)"
         id="g2859">
        <g
           id="g2857">
          <path
             fill="#ffffff"
             stroke="none"
             d="m 175.95,379 q -3.3,0 -5.7,1.9 -2.05,1.75 -2.25,4.1 h 16 q -0.25,-2.35 -2.4,-4.1 -2.3,-1.9 -5.65,-1.9 z"
             id="path2855" />
        </g>
      </g>
      <g
         transform="matrix(0.43300764,0,0,0.43300764,-2.5129537,-127.90538)"
         id="g2865">
        <g
           id="g2863">
          <path
             fill="#333333"
             stroke="none"
             d="m 170.5,416.5 q -1.75,-1.5 -4.3,-1.5 -2.55,0 -4.4,1.5 -1.8,1.45 -1.8,3.55 0,0.15 0.05,0.2 0,0.15 0,0.25 0.1,0.9 1.55,1.6 0.1,0.05 0.2,0.1 0.5,0.2 1.1,0.4 1.5,0.4 3.3,0.4 1.8,0 3.25,-0.4 0.55,-0.2 1.05,-0.4 0.9,-0.45 1.4,-0.9 0.35,-0.4 0.45,-0.8 0,-0.1 0,-0.25 0,-0.05 0,-0.2 0,-2.1 -1.85,-3.55 z"
             id="path2861" />
        </g>
      </g>
      <g
         transform="matrix(0.43300764,0,0,0.43300764,-2.5129537,-127.90538)"
         id="g2873">
        <g
           id="g2871">
          <path
             fill="#2ecc71"
             stroke="none"
             d="m 187.2,409.15 q 0.3,-0.15 0.55,-0.25 1.75,-0.85 3.55,-0.35 2.35,0.65 3.5,2.6 0.45,0.85 0.6,1.65 0.6,-1.1 0.6,-2.4 0,-2.25 -1.75,-3.95 -1.1,-1.15 -2.7,-1.45 -0.3,1.35 -4.35,4.15 z"
             id="path2867" />
          <path
             fill="#ffe0b1"
             stroke="none"
             d="m 185.9,411.7 q 0,1.95 1.15,3.85 1.1,2 2.75,2.9 1.5,0.9 2.65,0.3 0.1,-0.05 0.2,-0.15 0.3,-0.15 0.55,-0.3 1.55,-1.1 2.05,-2.95 0.35,-1.35 0.15,-2.55 -0.15,-0.8 -0.6,-1.65 -1.15,-1.95 -3.5,-2.6 -1.8,-0.5 -3.55,0.35 -0.25,0.1 -0.55,0.25 -0.05,0.05 -0.1,0.1 -0.05,0 -0.1,0.05 -1.05,0.65 -1.1,2.4 z"
             id="path2869" />
        </g>
      </g>
    </g>
    <g
       id="g2595"
       transform="matrix(1.7332128,0,0,1.7332128,-102.05786,-10.868319)">
      <g
         transform="matrix(0.43300764,0,0,0.43300764,-2.5129537,-127.90538)"
         id="g3168">
        <g
           id="use3166">
          <path
             fill="#2ecc71"
             stroke="none"
             d="m 164.25,408.9 q 0.25,0.1 0.55,0.25 -4.05,-2.8 -4.35,-4.15 -1.6,0.3 -2.7,1.45 -1.75,1.7 -1.75,3.95 0,1.3 0.6,2.4 0.1,-0.8 0.6,-1.65 1.15,-1.95 3.5,-2.6 1.8,-0.5 3.55,0.35 z"
             id="path2499" />
          <path
             fill="#ffe0b1"
             stroke="none"
             d="m 164.95,415.55 q 1.15,-1.9 1.15,-3.85 -0.05,-1.75 -1.1,-2.4 -0.05,-0.05 -0.1,-0.05 -0.05,-0.05 -0.1,-0.1 -0.3,-0.15 -0.55,-0.25 -1.75,-0.85 -3.55,-0.35 -2.35,0.65 -3.5,2.6 -0.5,0.85 -0.6,1.65 -0.2,1.2 0.15,2.55 0.5,1.85 2.05,2.95 0.25,0.15 0.55,0.3 0.1,0.1 0.2,0.15 1.15,0.6 2.65,-0.3 1.65,-0.9 2.75,-2.9 z"
             id="path2501" />
        </g>
      </g>
      <g
         transform="matrix(0.43300764,0,0,0.43300764,-2.5129537,-127.90538)"
         id="g3172">
        <g
           id="use3170">
          <path
             fill="#333333"
             stroke="none"
             d="m 192,420.05 q 0,-2.1 -1.8,-3.55 -1.8,-1.5 -4.35,-1.5 -2.55,0 -4.35,1.5 -1.85,1.45 -1.85,3.55 0,0.15 0.05,0.2 0,0.15 0,0.25 0.1,0.9 1.55,1.6 0.1,0.05 0.25,0.1 0.5,0.2 1.05,0.4 1.5,0.4 3.3,0.4 1.85,0 3.25,-0.4 0.55,-0.2 1.1,-0.4 0.85,-0.45 1.35,-0.9 0.35,-0.4 0.45,-0.8 0,-0.1 0,-0.25 0,-0.05 0,-0.2 z"
             id="path2495" />
        </g>
      </g>
      <g
         transform="matrix(0.43300764,0,0,0.43300764,-2.5129537,-127.90538)"
         id="g3176">
        <g
           id="use3174">
          <path
             fill="#cd4335"
             stroke="none"
             d="m 170.75,414.35 q -0.25,0.25 -0.5,0.55 -1.45,1.9 -2,4.1 h 1.55 q 0.2,-0.15 0.45,-0.35 2.35,-1.4 5.75,-1.4 3.4,0 5.75,1.4 0.2,0.2 0.45,0.35 h 1.55 q -0.6,-2.2 -2,-4.1 -0.25,-0.3 -0.45,-0.55 -2.25,-2.4 -5.3,-2.4 -3.05,0 -5.25,2.4 z"
             id="path2489" />
          <path
             fill="#e74c3c"
             stroke="none"
             d="m 192.65,414.3 q 0.5,-7.55 -3.2,-10.85 H 162.6 q -3.65,3.55 -3.1,10.9 0.05,0.65 0.2,1.3 0.05,0.45 0.15,0.75 0.15,0.55 0.4,0.95 1,1.65 3.5,1.65 h 4.5 q 0.55,-2.2 2,-4.1 0.25,-0.3 0.5,-0.55 2.2,-2.4 5.25,-2.4 3.05,0 5.3,2.4 0.2,0.25 0.45,0.55 1.4,1.9 2,4.1 h 4.5 q 3.4,0 4.1,-2.95 0.05,-0.2 0.1,-0.4 0,-0.15 0.05,-0.35 0.05,-0.45 0.15,-0.95 z"
             id="path2491" />
        </g>
      </g>
      <g
         transform="matrix(0.43300764,0,0,0.43300764,-2.5129537,-127.90538)"
         id="g3180">
        <g
           id="use3178">
          <path
             fill="#d7bd93"
             stroke="none"
             d="m 195.7,394.1 q -1.3,-1.1 -3.15,-1.1 -1.85,0 -3.15,1.1 -1.25,1.2 -1.3,2.8 v 0.15 q 0.05,1.65 1.3,2.7 1.3,1.25 3.15,1.25 1.85,0 3.15,-1.25 1.3,-1.1 1.3,-2.7 0,-1.75 -1.3,-2.95 M 159.4,393 q -1.8,0 -3.1,1.1 -1.3,1.2 -1.3,2.8 v 0.15 q 0,1.65 1.3,2.7 1.3,1.25 3.1,1.25 1.85,0 3.15,-1.25 1.3,-1.1 1.3,-2.7 0,-1.75 -1.3,-2.95 -1.3,-1.1 -3.15,-1.1 z"
             id="path2485" />
        </g>
      </g>
      <g
         transform="matrix(0.43300764,0,0,0.43300764,-2.5129537,-127.90538)"
         id="g3184">
        <g
           id="use3182">
          <path
             fill="#2ecc71"
             stroke="none"
             d="m 170.25,408.45 q 2.35,1.55 5.75,1.55 3.4,0 5.75,-1.55 1.4,-0.95 2,-2.15 h -15.5 q 0.55,1.2 2,2.15 z"
             id="path2477" />
          <path
             fill="#694c39"
             stroke="none"
             d="m 188.35,383.1 q 0.65,8 4.65,12.2 0.05,-1.9 -0.05,-3.8 -0.2,-2.9 -0.55,-5.85 -0.25,-1.6 -1.1,-2.55 -1.05,-1.1 -3.05,-1.1 0.05,0.6 0.1,1.1 m -28.65,2.65 q -0.5,3.2 -0.65,6.4 -0.05,1.55 0,3.15 4.75,-3.85 4.75,-12.2 -0.05,-0.5 -0.05,-1.1 -1.9,0 -2.95,1.1 -0.9,0.95 -1.1,2.65 z"
             id="path2479" />
          <path
             fill="#ffe0b1"
             stroke="none"
             d="m 163.75,382 q 0,0.6 0.05,1.1 0,8.35 -4.75,12.2 0.05,3.65 0.65,7.3 0.05,0.45 0.15,0.8 0.15,0.65 0.4,1.1 1,1.8 3.5,1.8 h 4.5 15.5 4.5 q 3.4,0 4.1,-3.25 0.05,-0.25 0.1,-0.45 0,-0.2 0.05,-0.4 0.4,-3.1 0.5,-6.3 0,-0.3 0,-0.6 -4,-4.2 -4.65,-12.2 -0.05,-0.5 -0.1,-1.1 z"
             id="path2481" />
        </g>
      </g>
      <g
         transform="matrix(0.43300764,0,0,0.43300764,-2.5129537,-127.90538)"
         id="g3188">
        <g
           id="use3186">
          <path
             fill="#694c39"
             stroke="none"
             d="m 185,393 q -0.8,0 -1.4,0.9 -0.6,0.8 -0.6,2.1 0,1.3 0.6,2.1 0.6,0.9 1.4,0.9 0.9,0 1.4,-0.9 0.6,-0.8 0.6,-2.1 0,-1.3 -0.6,-2.1 -0.5,-0.9 -1.4,-0.9 z"
             id="path2473" />
        </g>
      </g>
      <g
         transform="matrix(0.43300764,0,0,0.43300764,-2.5129537,-127.90538)"
         id="g3192">
        <g
           id="use3190">
          <path
             fill="#694c39"
             stroke="none"
             d="m 167,393 q -0.8,0 -1.4,0.9 -0.6,0.8 -0.6,2.1 0,1.3 0.6,2.1 0.6,0.9 1.4,0.9 0.85,0 1.4,-0.9 0.6,-0.8 0.6,-2.1 0,-1.3 -0.6,-2.1 -0.55,-0.9 -1.4,-0.9 z"
             id="path2469" />
        </g>
      </g>
      <g
         transform="matrix(0.43300764,0,0,0.43300764,-2.5129537,-127.90538)"
         id="g3196">
        <g
           id="use3194">
          <path
             fill="#694c39"
             stroke="none"
             d="m 169,403.3 q 0,0.75 2.05,1.2 2.1,0.5 4.95,0.5 2.9,0 5,-0.5 2,-0.45 2,-1.2 0,-1.75 -2,-3 -2.1,-1.3 -5,-1.3 -2.85,0 -4.95,1.3 -1.85,1.25 -2.05,3 z"
             id="path2465" />
        </g>
      </g>
      <g
         transform="matrix(0.43300764,0,0,0.43300764,-2.5129537,-127.90538)"
         id="g3200">
        <g
           id="use3198">
          <path
             fill="#2ecc71"
             stroke="none"
             d="m 158,388.55 q -0.05,2.45 2.65,2.45 h 30.7 q 2.65,0 2.65,-2.45 v -2.35 q -17.75,-2.05 -36,0 z"
             id="path2459" />
          <path
             fill="#28b162"
             stroke="none"
             d="m 158,378.6 v 7.6 q 18.25,-2.05 36,0 v -7.6 h -0.05 q -0.55,-3.95 -5.3,-4.6 -12.65,-1.95 -25.25,-0.05 -4.85,0.7 -5.35,4.65 z"
             id="path2461" />
        </g>
      </g>
      <g
         transform="matrix(0.43300764,0,0,0.43300764,-2.5129537,-127.90538)"
         id="g3204">
        <g
           id="use3202">
          <path
             fill="#d7bd93"
             stroke="none"
             d="m 173,399.9 q 0,0.45 0.9,0.8 0.9,0.3 2.15,0.3 1.2,0 2.1,-0.3 0.85,-0.35 0.85,-0.8 0,-1.15 -0.85,-2 -0.9,-0.9 -2.1,-0.9 -1.25,0 -2.15,0.9 -0.8,0.85 -0.9,2 z"
             id="path2455" />
        </g>
      </g>
      <g
         transform="matrix(0.43300764,0,0,0.43300764,-2.5129537,-127.90538)"
         id="g3208">
        <g
           id="use3206">
          <path
             fill="#ffffff"
             stroke="none"
             d="m 175.95,379 q -3.3,0 -5.7,1.9 -2.05,1.75 -2.25,4.1 h 16 q -0.25,-2.35 -2.4,-4.1 -2.3,-1.9 -5.65,-1.9 z"
             id="path2451" />
        </g>
      </g>
      <g
         transform="matrix(0.43300764,0,0,0.43300764,-2.5129537,-127.90538)"
         id="g3212">
        <g
           id="use3210">
          <path
             fill="#333333"
             stroke="none"
             d="m 170.5,416.5 q -1.75,-1.5 -4.3,-1.5 -2.55,0 -4.4,1.5 -1.8,1.45 -1.8,3.55 0,0.15 0.05,0.2 0,0.15 0,0.25 0.1,0.9 1.55,1.6 0.1,0.05 0.2,0.1 0.5,0.2 1.1,0.4 1.5,0.4 3.3,0.4 1.8,0 3.25,-0.4 0.55,-0.2 1.05,-0.4 0.9,-0.45 1.4,-0.9 0.35,-0.4 0.45,-0.8 0,-0.1 0,-0.25 0,-0.05 0,-0.2 0,-2.1 -1.85,-3.55 z"
             id="path2447" />
        </g>
      </g>
      <g
         transform="matrix(0.43300764,0,0,0.43300764,-2.5129537,-127.90538)"
         id="g3216">
        <g
           id="use3214">
          <path
             fill="#2ecc71"
             stroke="none"
             d="m 187.2,409.15 q 0.3,-0.15 0.55,-0.25 1.75,-0.85 3.55,-0.35 2.35,0.65 3.5,2.6 0.45,0.85 0.6,1.65 0.6,-1.1 0.6,-2.4 0,-2.25 -1.75,-3.95 -1.1,-1.15 -2.7,-1.45 -0.3,1.35 -4.35,4.15 z"
             id="path2441" />
          <path
             fill="#ffe0b1"
             stroke="none"
             d="m 185.9,411.7 q 0,1.95 1.15,3.85 1.1,2 2.75,2.9 1.5,0.9 2.65,0.3 0.1,-0.05 0.2,-0.15 0.3,-0.15 0.55,-0.3 1.55,-1.1 2.05,-2.95 0.35,-1.35 0.15,-2.55 -0.15,-0.8 -0.6,-1.65 -1.15,-1.95 -3.5,-2.6 -1.8,-0.5 -3.55,0.35 -0.25,0.1 -0.55,0.25 -0.05,0.05 -0.1,0.1 -0.05,0 -0.1,0.05 -1.05,0.65 -1.1,2.4 z"
             id="path2443" />
        </g>
      </g>
    </g>
    <g
       aria-label="Sokoban!"
       transform="matrix(0.65891485,0,0,0.65891485,-76.314299,-75.587973)"
       id="text2901"
       style="font-size:40px;line-height:1.25;font-family:'Varela Round';-inkscape-font-specification:'Varela Round';white-space:pre;shape-inside:url(#rect2903);fill:#000000;stroke-width:3.73189343;stroke-dasharray:none;stroke:#000000;filter:url(#filter3973);opacity:0.37938705">
      <path
         d="m 198.47492,230.00185 q -5.08,0 -9.52,-1.92 -0.48,-0.2 -0.8,-0.64 -0.32,-0.48 -0.32,-1 0,-0.68 0.44,-1.16 0.48,-0.52 1.2,-0.52 0.4,0 0.76,0.16 3.68,1.64 7.88,1.64 7,0 7,-4.6 0,-1.2 -0.92,-2 -0.88,-0.8 -2.2,-1.24 -1.32,-0.48 -3.76,-1.12 -3.24,-0.84 -5.24,-1.6 -2,-0.8 -3.44,-2.36 -1.44,-1.56 -1.44,-4.16 0,-2.28 1.2,-4.12 1.2,-1.88 3.52,-2.96 2.36,-1.12 5.64,-1.12 4.4,0 7.96,1.32 1.12,0.4 1.12,1.6 0,0.64 -0.44,1.16 -0.44,0.52 -1.16,0.52 -0.24,0 -0.64,-0.16 -3.12,-1.08 -6.44,-1.08 -3.16,0 -5.16,1.2 -1.96,1.2 -1.96,3.36 0,1.44 0.92,2.36 0.96,0.88 2.36,1.4 1.44,0.48 3.88,1.04 3.16,0.76 5.08,1.52 1.96,0.76 3.32,2.36 1.4,1.6 1.4,4.32 0,2.24 -1.28,4.04 -1.28,1.76 -3.6,2.76 -2.32,1 -5.36,1 z"
         id="path3583"
         style="stroke-width:3.73189343;stroke-dasharray:none;stroke:#000000;fill:#000000" />
      <path
         d="m 222.59489,230.00185 q -3.08,0 -5.4,-1.32 -2.32,-1.32 -3.6,-3.72 -1.24,-2.44 -1.24,-5.56 0,-3.12 1.24,-5.52 1.28,-2.44 3.6,-3.76 2.32,-1.32 5.4,-1.32 3.04,0 5.36,1.32 2.32,1.32 3.6,3.76 1.28,2.4 1.28,5.52 0,3.12 -1.28,5.56 -1.28,2.4 -3.6,3.72 -2.32,1.32 -5.36,1.32 z m 0,-3.32 q 1.64,0 3.12,-0.76 1.52,-0.76 2.48,-2.4 1,-1.64 1,-4.16 0,-2.48 -1,-4.12 -0.96,-1.64 -2.48,-2.36 -1.48,-0.76 -3.12,-0.76 -1.68,0 -3.2,0.76 -1.48,0.72 -2.44,2.36 -0.96,1.64 -0.96,4.12 0,2.52 0.96,4.16 0.96,1.64 2.44,2.4 1.52,0.76 3.2,0.76 z"
         id="path3585"
         style="stroke-width:3.73189343;stroke-dasharray:none;stroke:#000000;fill:#000000" />
      <path
         d="m 239.71488,229.80185 q -0.76,0 -1.28,-0.52 -0.52,-0.52 -0.52,-1.28 v -25.96 q 0,-0.76 0.52,-1.28 0.52,-0.56 1.28,-0.56 0.76,0 1.28,0.56 0.56,0.52 0.56,1.28 v 16.36 l 9.52,-8.8 q 0.6,-0.52 1.2,-0.52 0.92,0 1.32,0.52 0.44,0.52 0.44,1.24 0,0.68 -0.68,1.36 l -5.76,5.16 7.24,9.6 q 0.4,0.52 0.4,1.08 0,0.8 -0.52,1.28 -0.52,0.48 -1.32,0.48 -0.4,0 -0.8,-0.2 -0.4,-0.2 -0.68,-0.56 l -6.88,-9.36 -3.48,3.16 v 5.16 q 0,0.76 -0.56,1.28 -0.52,0.52 -1.28,0.52 z"
         id="path3587"
         style="stroke-width:3.73189343;stroke-dasharray:none;stroke:#000000;fill:#000000" />
      <path
         d="m 268.35485,230.00185 q -3.08,0 -5.4,-1.32 -2.32,-1.32 -3.6,-3.72 -1.24,-2.44 -1.24,-5.56 0,-3.12 1.24,-5.52 1.28,-2.44 3.6,-3.76 2.32,-1.32 5.4,-1.32 3.04,0 5.36,1.32 2.32,1.32 3.6,3.76 1.28,2.4 1.28,5.52 0,3.12 -1.28,5.56 -1.28,2.4 -3.6,3.72 -2.32,1.32 -5.36,1.32 z m 0,-3.32 q 1.64,0 3.12,-0.76 1.52,-0.76 2.48,-2.4 1,-1.64 1,-4.16 0,-2.48 -1,-4.12 -0.96,-1.64 -2.48,-2.36 -1.48,-0.76 -3.12,-0.76 -1.68,0 -3.2,0.76 -1.48,0.72 -2.44,2.36 -0.96,1.64 -0.96,4.12 0,2.52 0.96,4.16 0.96,1.64 2.44,2.4 1.52,0.76 3.2,0.76 z"
         id="path3589"
         style="stroke-width:3.73189343;stroke-dasharray:none;stroke:#000000;fill:#000000" />
      <path
         d="m 294.15485,230.00185 q -3.92,0 -6.84,-3.04 v 1.04 q 0,0.76 -0.56,1.28 -0.52,0.52 -1.28,0.52 -0.76,0 -1.28,-0.52 -0.52,-0.52 -0.52,-1.28 v -25.96 q 0,-0.76 0.52,-1.28 0.52,-0.56 1.28,-0.56 0.8,0 1.32,0.52 0.52,0.52 0.52,1.32 v 9.8 q 2.92,-3.04 6.84,-3.04 2.48,0 4.68,1.28 2.24,1.24 3.6,3.68 1.4,2.4 1.4,5.64 0,3.24 -1.4,5.68 -1.36,2.4 -3.6,3.68 -2.2,1.24 -4.68,1.24 z m -0.52,-3.4 q 2.96,0 4.76,-1.88 1.8,-1.88 1.8,-5.32 0,-3.44 -1.8,-5.32 -1.8,-1.88 -4.76,-1.88 -1.84,0 -3.48,0.84 -1.6,0.8 -2.84,2.16 v 8.4 q 1.24,1.36 2.84,2.2 1.64,0.8 3.48,0.8 z"
         id="path3591"
         style="stroke-width:3.73189343;stroke-dasharray:none;stroke:#000000;fill:#000000" />
      <path
         d="m 314.11487,230.00185 q -1.76,0 -3.28,-0.72 -1.48,-0.72 -2.36,-2.08 -0.88,-1.4 -0.88,-3.2 0,-2.96 2.32,-4.72 2.36,-1.76 6.88,-1.76 h 4.84 v -0.32 q 0,-2.64 -1.32,-3.8 -1.28,-1.16 -4.04,-1.16 -1.52,0 -2.72,0.24 -1.16,0.24 -2.6,0.72 -0.32,0.08 -0.52,0.08 -0.6,0 -1.04,-0.44 -0.44,-0.44 -0.44,-1.08 0,-1.08 1.04,-1.52 3.4,-1.44 6.92,-1.44 2.76,0 4.64,1.12 1.92,1.12 2.8,2.92 0.92,1.76 0.92,3.84 v 11.32 q 0,0.76 -0.56,1.28 -0.52,0.52 -1.28,0.52 -0.76,0 -1.28,-0.52 -0.52,-0.52 -0.52,-1.28 v -1.04 q -2.96,3.04 -7.52,3.04 z m 1.36,-3.2 q 1.76,0 3.4,-0.84 1.64,-0.88 2.76,-2.16 v -3.36 h -4.36 q -6.04,0 -6.04,3.16 0,1.44 0.96,2.32 1,0.88 3.28,0.88 z"
         id="path3593"
         style="stroke-width:3.73189343;stroke-dasharray:none;stroke:#000000;fill:#000000" />
      <path
         d="m 333.19488,229.80185 q -0.76,0 -1.28,-0.52 -0.52,-0.52 -0.52,-1.28 v -17.16 q 0,-0.76 0.52,-1.28 0.52,-0.56 1.28,-0.56 0.76,0 1.28,0.56 0.56,0.52 0.56,1.28 v 1.64 q 1.52,-1.68 3.28,-2.68 1.76,-1 4.16,-1 2.2,0 3.8,1.04 1.64,1.04 2.48,2.84 0.88,1.8 0.88,3.96 v 11.36 q 0,0.76 -0.56,1.28 -0.52,0.52 -1.28,0.52 -0.76,0 -1.28,-0.52 -0.52,-0.52 -0.52,-1.28 v -10.96 q 0,-4.88 -4.4,-4.88 -2,0 -3.6,1.04 -1.56,1.04 -2.96,2.8 v 12 q 0,0.76 -0.56,1.28 -0.52,0.52 -1.28,0.52 z"
         id="path3595"
         style="stroke-width:3.73189343;stroke-dasharray:none;stroke:#000000;fill:#000000" />
      <path
         d="m 358.23485,221.88185 q -0.6,0 -0.96,-0.32 -0.36,-0.32 -0.4,-0.84 l -0.72,-13.2 v -3.96 q 0,-0.88 0.6,-1.48 0.6,-0.6 1.48,-0.6 0.88,0 1.44,0.6 0.6,0.6 0.6,1.48 v 3.96 l -0.72,13.2 q -0.04,0.52 -0.4,0.84 -0.32,0.32 -0.92,0.32 z m 0,7.88 q -0.96,0 -1.68,-0.68 -0.68,-0.72 -0.68,-1.72 0,-0.96 0.68,-1.64 0.72,-0.72 1.68,-0.72 1,0 1.68,0.72 0.72,0.68 0.72,1.64 0,1 -0.72,1.72 -0.68,0.68 -1.68,0.68 z"
         id="path3597"
         style="stroke-width:3.73189343;stroke-dasharray:none;stroke:#000000;fill:#000000" />
    </g>
    <text
       xml:space="preserve"
       transform="matrix(0.65891485,0,0,0.65891485,-76.314299,-75.587973)"
       id="text2649"
       style="font-size:40px;line-height:1.25;font-family:'Varela Round';-inkscape-font-specification:'Varela Round';white-space:pre;shape-inside:url(#rect2651);display:inline;fill:#ffffff"><tspan
         x="185.79492"
         y="229.60185"
         id="tspan9183">Sokoban!</tspan></text>
  </g>
</svg>
